# xmcd
# 
# Track frame offsets:
#     150
#     15755
#     33937
#     53915
#     70057
#     88087
#     103342
#     119767
#     144742
#     158680
#     176677
#     195867
#     215117
#     236450
#     252452
#     271747
# 
# Disc length: 3903
# 
# Revision: 8
# Processed by: cddbd v1.5.2PL0 Copyright (c) Steve Scherf et al.
# Submitted via: BonkEnc v1.0.8
# 
DISCID=de0f3d10
DTITLE=長渕剛 - 長渕剛1978年〜1981年
DYEAR=1985
DGENRE=Pop
TTITLE0=夏の恋人
TTITLE1=涙のセレナーデ
TTITLE2=春待気流
TTITLE3=決心
TTITLE4=クレイジー・ボーイ
TTITLE5=恋のランデブー
TTITLE6=俺らの家まで
TTITLE7=乾杯
TTITLE8=順子
TTITLE9=ヒロイン
TTITLE10=素顔
TTITLE11=祈り
TTITLE12=Da!Da!Da!
TTITLE13=巡恋歌
TTITLE14=逆流
TTITLE15=さよならの唄
EXTD=
EXTT0=
EXTT1=
EXTT2=
EXTT3=
EXTT4=
EXTT5=
EXTT6=
EXTT7=
EXTT8=
EXTT9=
EXTT10=
EXTT11=
EXTT12=
EXTT13=
EXTT14=
EXTT15=
PLAYORDER=
